<?xml version="1.0" encoding="UTF-8"?>
<svg width="32" height="32" viewBox="0 0 32 32" version="1.1" xmlns="http://www.w3.org/2000/svg">
    <!-- Background shield with blue border -->
    <path 
        d="M16,3 L5,7.5 L5,15 C5,21.5 9.5,27 16,28.5 C22.5,27 27,21.5 27,15 L27,7.5 L16,3 Z" 
        fill="#FF8B00"
    />
    <path 
        d="M16,3 L5,7.5 L5,15 C5,21.5 9.5,27 16,28.5 C22.5,27 27,21.5 27,15 L27,7.5 L16,3 Z" 
        fill="none"
        stroke="#091E42"
        stroke-width="2"
    />
    
    <!-- Clear checkmark symbol -->
    <path 
        d="M13,16 L21,8 L23,10 L13,20 L9,16 L11,14 L13,16 Z" 
        fill="#FFFFFF"
    />
</svg>
